<?xml version="1.0"?>
<svg xmlns="http://www.w3.org/2000/svg" xmlns:xlink="http://www.w3.org/1999/xlink" xmlns:svgjs="http://svgjs.com/svgjs" version="1.1" width="512" height="512" x="0" y="0" viewBox="0 0 512 512.00003" style="enable-background:new 0 0 512 512" xml:space="preserve"><g><path xmlns="http://www.w3.org/2000/svg" d="m153.523438 375.464844c0-14.136719-11.460938-25.597656-25.601563-25.597656-14.136719 0-25.597656 11.460937-25.597656 25.597656 0 14.140625 11.460937 25.601562 25.597656 25.601562 14.132813-.015625 25.585937-11.46875 25.601563-25.601562zm-25.601563 8.535156c-4.710937 0-8.53125-3.820312-8.53125-8.535156 0-4.710938 3.820313-8.53125 8.53125-8.53125 4.714844 0 8.535156 3.820312 8.535156 8.53125-.007812 4.710937-3.824219 8.527344-8.535156 8.535156zm0 0" fill="#37352f" data-original="#000000" style=""/><path xmlns="http://www.w3.org/2000/svg" d="m162.054688 409.601562c-14.136719 0-25.597657 11.460938-25.597657 25.597657 0 14.140625 11.460938 25.601562 25.597657 25.601562 14.140624 0 25.601562-11.460937 25.601562-25.601562-.015625-14.132813-11.46875-25.582031-25.601562-25.597657zm0 34.132813c-4.710938 0-8.53125-3.820313-8.53125-8.535156 0-4.710938 3.820312-8.53125 8.53125-8.53125 4.714843 0 8.535156 3.820312 8.535156 8.53125-.007813 4.710937-3.824219 8.527343-8.535156 8.535156zm0 0" fill="#37352f" data-original="#000000" style=""/><path xmlns="http://www.w3.org/2000/svg" d="m122.632812 461.484375c-3.183593-1.296875-6.828124-.59375-9.300781 1.789063-.753906.832031-1.359375 1.785156-1.792969 2.816406-.90625 2.066406-.90625 4.417968 0 6.484375.433594 1.035156 1.039063 1.988281 1.792969 2.816406.425781.34375.851563.683594 1.277344 1.023437.476563.324219.992187.582032 1.539063.769532.484374.246094 1 .417968 1.535156.511718.5625.09375 1.132812.152344 1.707031.171876 3.449219-.015626 6.554687-2.097657 7.878906-5.28125 1.320313-3.1875.605469-6.859376-1.820312-9.3125-.832031-.75-1.785157-1.359376-2.816407-1.789063zm0 0" fill="#37352f" data-original="#000000" style=""/><path xmlns="http://www.w3.org/2000/svg" d="m182.363281 359.082031c-3.179687-1.292969-6.828125-.589843-9.300781 1.792969-.75.828125-1.359375 1.78125-1.789062 2.816406-.90625 2.066406-.90625 4.417969 0 6.484375.429687 1.035157 1.039062 1.984375 1.789062 2.816407.429688.339843.855469.683593 1.28125 1.023437.476562.324219.992188.582031 1.535156.769531.484375.242188 1.003906.414063 1.535156.511719.566407.09375 1.136719.148437 1.707032.167969 3.453125-.011719 6.558594-2.09375 7.878906-5.28125 1.324219-3.1875.605469-6.855469-1.820312-9.308594-.828126-.753906-1.78125-1.359375-2.816407-1.792969zm0 0" fill="#37352f" data-original="#000000" style=""/><path xmlns="http://www.w3.org/2000/svg" d="m400.988281 358.398438c0-14.136719-11.460937-25.597657-25.597656-25.597657-14.140625 0-25.601563 11.460938-25.601563 25.597657 0 14.140624 11.460938 25.601562 25.601563 25.601562 14.128906-.015625 25.582031-11.46875 25.597656-25.601562zm-25.597656 8.535156c-4.714844 0-8.535156-3.820313-8.535156-8.535156 0-4.710938 3.820312-8.53125 8.535156-8.53125 4.710937 0 8.53125 3.820312 8.53125 8.53125-.003906 4.710937-3.824219 8.527343-8.53125 8.535156zm0 0" fill="#37352f" data-original="#000000" style=""/><path xmlns="http://www.w3.org/2000/svg" d="m392.457031 93.867188c0-18.851563-15.28125-34.132813-34.132812-34.132813-18.851563 0-34.136719 15.28125-34.136719 34.132813 0 18.851562 15.285156 34.132812 34.136719 34.132812 18.839843-.019531 34.109375-15.289062 34.132812-34.132812zm-51.199219 0c0-9.425782 7.640626-17.066407 17.066407-17.066407s17.066406 7.640625 17.066406 17.066407c0 9.425781-7.640625 17.066406-17.066406 17.066406-9.421875-.007813-17.058594-7.644532-17.066407-17.066406zm0 0" fill="#37352f" data-original="#000000" style=""/><path xmlns="http://www.w3.org/2000/svg" d="m435.121094 179.199219c14.140625 0 25.601562-11.460938 25.601562-25.597657 0-14.140624-11.460937-25.601562-25.601562-25.601562-14.136719 0-25.597656 11.460938-25.597656 25.601562.015624 14.128907 11.46875 25.582032 25.597656 25.597657zm0-34.132813c4.714844 0 8.535156 3.820313 8.535156 8.535156 0 4.710938-3.820312 8.53125-8.535156 8.53125-4.710938 0-8.53125-3.820312-8.53125-8.53125.003906-4.710937 3.824218-8.527343 8.53125-8.535156zm0 0" fill="#37352f" data-original="#000000" style=""/><path xmlns="http://www.w3.org/2000/svg" d="m435.121094 51.199219c14.140625 0 25.601562-11.460938 25.601562-25.597657 0-14.140624-11.460937-25.601562-25.601562-25.601562-14.136719 0-25.597656 11.460938-25.597656 25.601562.015624 14.128907 11.46875 25.582032 25.597656 25.597657zm0-34.132813c4.714844 0 8.535156 3.820313 8.535156 8.535156 0 4.710938-3.820312 8.53125-8.535156 8.53125-4.710938 0-8.53125-3.820312-8.53125-8.53125.003906-4.710937 3.824218-8.527343 8.53125-8.535156zm0 0" fill="#37352f" data-original="#000000" style=""/><path xmlns="http://www.w3.org/2000/svg" d="m409.523438 392.535156c-14.140626 0-25.601563 11.460938-25.601563 25.597656 0 14.140626 11.460937 25.601563 25.601563 25.601563 14.136718 0 25.597656-11.460937 25.597656-25.601563-.015625-14.132812-11.464844-25.582031-25.597656-25.597656zm0 34.132813c-4.714844 0-8.535157-3.820313-8.535157-8.535157 0-4.710937 3.820313-8.53125 8.535157-8.53125 4.710937 0 8.53125 3.820313 8.53125 8.53125-.003907 4.710938-3.820313 8.527344-8.53125 8.535157zm0 0" fill="#37352f" data-original="#000000" style=""/><path xmlns="http://www.w3.org/2000/svg" d="m370.097656 444.414062c-3.179687-1.292968-6.828125-.589843-9.300781 1.792969-.753906.832031-1.359375 1.78125-1.792969 2.816407-.902344 2.066406-.902344 4.417968 0 6.484374.433594 1.035157 1.039063 1.988282 1.792969 2.816407.425781.34375.855469.683593 1.28125 1.023437.476563.324219.992187.582032 1.535156.769532.484375.246093 1 .417968 1.535157.511718.566406.09375 1.136718.152344 1.707031.171875 3.449219-.015625 6.554687-2.097656 7.878906-5.285156 1.324219-3.183594.605469-6.855469-1.820313-9.308594-.828124-.75-1.78125-1.359375-2.816406-1.792969zm0 0" fill="#37352f" data-original="#000000" style=""/><path xmlns="http://www.w3.org/2000/svg" d="m429.832031 342.015625c-3.183593-1.292969-6.828125-.59375-9.300781 1.792969-.753906.828125-1.359375 1.78125-1.792969 2.816406-.90625 2.066406-.90625 4.417969 0 6.484375.433594 1.035156 1.039063 1.984375 1.792969 2.816406.425781.339844.851562.683594 1.277344 1.023438.476562.324219.996094.582031 1.539062.769531.484375.242188 1 .414062 1.535156.511719.5625.09375 1.132813.148437 1.707032.167969 3.449218-.011719 6.554687-2.09375 7.878906-5.28125 1.320312-3.1875.605469-6.855469-1.820312-9.308594-.832032-.753906-1.78125-1.359375-2.816407-1.792969zm0 0" fill="#37352f" data-original="#000000" style=""/><path xmlns="http://www.w3.org/2000/svg" d="m494.855469 196.265625h-203.644531c-6.621094 0-12.644532 3.832031-15.453126 9.828125-2.8125 5.996094-1.898437 13.074219 2.339844 18.164062l27.046875 32.457032c1.277344 1.53125 1.976563 3.464844 1.976563 5.460937v86.253907l-46.167969-62.792969c-3.226563-4.421875-4.984375-9.742188-5.03125-15.214844v-212.261719c10.199219-3.589844 17.035156-13.214844 17.066406-24.027344v-17.066406c-.007812-9.421875-7.644531-17.0585935-17.066406-17.066406h-136.53125c-9.421875.0078125-17.058594 7.644531-17.066406 17.066406v17.066406c.03125 10.8125 6.867187 20.4375 17.066406 24.027344v212.261719c.011719 5.460937-1.742187 10.785156-4.996094 15.171875l-104.128906 141.59375c-11.84375 16.21875-13.574219 37.714844-4.480469 55.621094s27.472656 29.1875 47.554688 29.191406h268.628906c7.507812.003906 14.925781-1.582031 21.769531-4.660156 7.316407 3.082031 15.179688 4.667968 23.117188 4.660156h85.332031c32.976562-.035156 59.699219-26.757812 59.734375-59.734375v-238.933594c-.007813-9.421875-7.644531-17.054687-17.066406-17.066406zm-203.644531 17.066406h203.644531v89.269531l-36.472657-16.210937c-20.308593-9.09375-43.871093-7.082031-62.34375 5.320313-13.425781 8.988281-30.492187 10.558593-45.328124 4.167968l-26.523438-11.371094v-22.328124c-.003906-5.988282-2.101562-11.785157-5.929688-16.382813zm-171.820313-196.265625h136.53125v17.066406c-.003906 4.710938-3.824219 8.527344-8.53125 8.535157h-119.46875c-4.710937-.007813-8.527344-3.824219-8.53125-8.535157zm8.738281 278.648438c5.429688-7.3125 8.347656-16.183594 8.328125-25.292969v-14.421875h17.066407c4.710937 0 8.53125-3.820312 8.53125-8.535156 0-4.710938-3.820313-8.53125-8.53125-8.53125h-17.066407v-25.601563h34.132813c4.710937 0 8.53125-3.820312 8.53125-8.53125 0-4.714843-3.820313-8.535156-8.53125-8.535156h-34.132813v-25.597656h17.066407c4.710937 0 8.53125-3.820313 8.53125-8.535157 0-4.710937-3.820313-8.53125-8.53125-8.53125h-17.066407v-25.601562h34.132813c4.710937 0 8.53125-3.820312 8.53125-8.535156 0-4.710938-3.820313-8.53125-8.53125-8.53125h-34.132813v-51.199219h102.398438v210.6875c.058593 9.089844 2.964843 17.929687 8.3125 25.277344l14.726562 20.035156h-148.484375zm193.839844 199.21875h-268.628906c-13.652344-.003906-26.148438-7.675782-32.332032-19.847656-6.1875-12.171876-5.015624-26.785157 3.027344-37.820313l76.824219-104.464844h173.585937l32.675782 44.441407v75.023437c-.003906 15.980469 6.414062 31.289063 17.8125 42.488281-.984375.078125-1.957032.179688-2.964844.179688zm130.21875 0h-85.332031c-23.550781-.027344-42.636719-19.113282-42.667969-42.667969v-149.191406l19.800781 8.484375c20.144531 8.675781 43.320313 6.542968 61.542969-5.667969 13.613281-9.125 30.960938-10.601563 45.917969-3.90625l43.40625 19.296875v130.984375c-.027344 23.554687-19.113281 42.640625-42.667969 42.667969zm0 0" fill="#37352f" data-original="#000000" style=""/><path xmlns="http://www.w3.org/2000/svg" d="m358.324219 247.464844h17.066406c4.710937 0 8.53125-3.820313 8.53125-8.53125 0-4.714844-3.820313-8.535156-8.53125-8.535156h-17.066406c-4.714844 0-8.535157 3.820312-8.535157 8.535156 0 4.710937 3.820313 8.53125 8.535157 8.53125zm0 0" fill="#37352f" data-original="#000000" style=""/><path xmlns="http://www.w3.org/2000/svg" d="m409.523438 247.464844h59.734374c4.710938 0 8.53125-3.820313 8.53125-8.53125 0-4.714844-3.820312-8.535156-8.53125-8.535156h-59.734374c-4.714844 0-8.535157 3.820312-8.535157 8.535156 0 4.710937 3.820313 8.53125 8.535157 8.53125zm0 0" fill="#37352f" data-original="#000000" style=""/></g></svg>
