<?xml version="1.0"?>
<svg xmlns="http://www.w3.org/2000/svg" xmlns:xlink="http://www.w3.org/1999/xlink" xmlns:svgjs="http://svgjs.com/svgjs" version="1.1" width="512" height="512" x="0" y="0" viewBox="0 0 512.008 512.008" style="enable-background:new 0 0 512 512" xml:space="preserve" class=""><g>
<g xmlns="http://www.w3.org/2000/svg">
	<g>
		<path d="M392.537,256.008h-14.575V244.65c-0.17-15.368-8.533-29.476-21.933-37.001l-57.467-31.8v-11.817    c7.349-9.021,12.986-19.309,16.633-30.358c0.413-1.998,1.424-3.824,2.9-5.233c5.271-5.024,8.271-11.976,8.308-19.258v-17.5    c-0.01-4.261-1.044-8.457-3.017-12.233l-1.067-2.033c-0.707-1.332-1.076-2.817-1.075-4.325V47.924    c-0.55-26.96-22.813-48.392-49.775-47.917h-30.933c-26.962-0.475-49.225,20.956-49.775,47.917v25.167    c0.001,1.512-0.371,3-1.083,4.333l-1.05,2.017c-1.978,3.778-3.015,7.977-3.025,12.242v17.5c0.044,7.293,3.052,14.254,8.333,19.283    c1.459,1.401,2.459,3.211,2.867,5.192c3.65,11.055,9.289,21.349,16.642,30.375v11.817l-57.583,31.866    c-13.344,7.534-21.659,21.611-21.817,36.934v11.358h-14.575c-9.421,0.012-17.054,7.646-17.067,17.067v42.667    c0.012,9.421,7.646,17.054,17.067,17.067h10.328l41.105,172.642c0.916,3.843,4.349,6.556,8.3,6.558h153.6    c3.951-0.003,7.384-2.715,8.3-6.558l41.105-172.642h10.328c9.421-0.012,17.055-7.646,17.067-17.067v-42.667    C409.592,263.654,401.958,256.02,392.537,256.008z M347.646,222.516c8.1,4.433,13.169,12.9,13.25,22.133v11.358h-96.358V217.47    l26.102-26.502L347.646,222.516z M205.712,116.108c-1.924-1.791-3.024-4.296-3.042-6.925v-17.5c-0.001-1.512,0.371-3,1.084-4.333    l1.05-2.017c1.978-3.778,3.015-7.977,3.025-12.242V47.924c0.549-17.535,15.171-31.326,32.708-30.85h30.933    c17.537-0.476,32.159,13.315,32.708,30.85v25.167c0.01,4.261,1.044,8.456,3.017,12.233l1.067,2.033    c0.707,1.332,1.076,2.817,1.075,4.325v17.501c-0.017,2.625-1.114,5.126-3.033,6.917c-3.957,3.78-6.677,8.669-7.8,14.025    c-3.279,9.028-8.147,17.396-14.375,24.708c-1.701,2.283-2.625,5.053-2.633,7.9v13.183l-25.492,25.891l-25.492-25.892v-13.183    c-0.018-2.899-0.974-5.715-2.725-8.025c-6.194-7.281-11.034-15.613-14.292-24.6C212.376,124.762,209.662,119.88,205.712,116.108z     M151.112,244.65c0.069-9.188,5.09-17.625,13.133-22.067l57.122-31.617l26.103,26.504v38.537h-96.358V244.65z M392.537,315.741    H204.804c-4.713,0-8.533,3.82-8.533,8.533s3.82,8.533,8.533,8.533h159.865l-38.606,162.133H185.945l-38.606-162.133h23.331    c4.713,0,8.533-3.82,8.533-8.533s-3.82-8.533-8.533-8.533h-51.2v-42.667h273.067V315.741z" fill="#37352f" data-original="#000000" style=""/>
	</g>
</g>
<g xmlns="http://www.w3.org/2000/svg">
</g>
<g xmlns="http://www.w3.org/2000/svg">
</g>
<g xmlns="http://www.w3.org/2000/svg">
</g>
<g xmlns="http://www.w3.org/2000/svg">
</g>
<g xmlns="http://www.w3.org/2000/svg">
</g>
<g xmlns="http://www.w3.org/2000/svg">
</g>
<g xmlns="http://www.w3.org/2000/svg">
</g>
<g xmlns="http://www.w3.org/2000/svg">
</g>
<g xmlns="http://www.w3.org/2000/svg">
</g>
<g xmlns="http://www.w3.org/2000/svg">
</g>
<g xmlns="http://www.w3.org/2000/svg">
</g>
<g xmlns="http://www.w3.org/2000/svg">
</g>
<g xmlns="http://www.w3.org/2000/svg">
</g>
<g xmlns="http://www.w3.org/2000/svg">
</g>
<g xmlns="http://www.w3.org/2000/svg">
</g>
</g></svg>
