<?xml version="1.0"?>
<svg xmlns="http://www.w3.org/2000/svg" xmlns:xlink="http://www.w3.org/1999/xlink" xmlns:svgjs="http://svgjs.com/svgjs" version="1.1" width="512" height="512" x="0" y="0" viewBox="0 0 607.816 607.816" style="enable-background:new 0 0 512 512" xml:space="preserve" class=""><g><g xmlns="http://www.w3.org/2000/svg"><g id="Page-1_15_"><g id="_x30_17---Engineering-Innovation"><path id="Shape_61_" d="m234.543 70.187c3.358-1.35 5.741-4.389 6.252-7.972.51-3.583-.93-7.167-3.778-9.4s-6.672-2.778-10.03-1.428c-46.615 18.843-80.955 59.442-91.804 108.538-.572 2.626-.076 5.372 1.377 7.633s3.746 3.851 6.372 4.421c.71.148 1.433.223 2.158.223 4.763 0 8.882-3.318 9.897-7.972 9.409-42.538 39.166-77.713 79.556-94.043z" fill="#37352f" data-original="#000000" style=""/><path id="Shape_60_" d="m465.414 80.833c-4.405-5.427-9.112-10.601-14.1-15.498-4.992-5.031-10.239-9.801-15.721-14.293-8.187-6.317-19.566-6.457-27.907-.344l-17.798 12.723c-15.943-9.644-33.255-16.816-51.346-21.272l-3.525-21.505c-1.631-10.298-9.906-18.258-20.259-19.489-6.968-.742-13.97-1.127-20.978-1.155h-10.13c-74.99-.036-143.166 43.509-174.666 111.563s-20.583 148.209 27.971 205.359c26.725 30.912 42.542 69.755 45.015 110.543-10.851 3.956-18.5 13.75-19.708 25.236s4.235 22.657 14.025 28.785c-8.16 14.02-3.668 31.988 10.13 40.518-2.622 4.516-4.022 9.638-4.062 14.86 0 16.783 13.605 30.388 30.388 30.388h4.102c12.968 24.926 38.731 40.564 66.829 40.564s53.861-15.637 66.829-40.564h4.052c16.783 0 30.389-13.605 30.389-30.388-.03-5.235-1.427-10.371-4.052-14.901 13.798-8.53 18.29-26.498 10.13-40.518 11.455-7.198 16.756-21.113 12.996-34.109-3.761-12.996-15.674-21.929-29.203-21.897h-39.88c0-.111.061-.213.081-.334l3.525-21.505c18.091-4.459 35.402-11.631 51.346-21.272l17.747 12.702c8.481 6.197 20.06 5.952 28.271-.598 5.946-5.004 10.849-9.451 15.417-14.019 5.227-5.247 9.978-10.464 14.272-15.721 6.322-8.196 6.479-19.58.385-27.947l-12.743-17.787c9.664-15.935 16.853-33.244 21.323-51.336l21.495-3.525c10.286-1.654 18.235-9.917 19.489-20.259.722-6.973 1.083-13.978 1.084-20.988-.01-7.041-.389-14.078-1.134-21.079-1.27-10.304-9.206-18.525-19.459-20.158l-21.505-3.515c-4.467-18.096-11.657-35.409-21.323-51.346l12.773-17.757c6.13-8.459 5.899-19.957-.565-28.162zm-171.634 71.11c25.332 0 48.741 13.515 61.407 35.453 12.666 21.939 12.666 48.968 0 70.906-12.666 21.939-36.074 35.453-61.407 35.453zm0 162.072c32.57 0 62.667-17.376 78.952-45.583s16.285-62.959 0-91.166-46.381-45.583-78.952-45.583v-30.389c43.427 0 83.555 23.168 105.269 60.777s21.714 83.945 0 121.554-61.842 60.777-105.269 60.777zm-182.331-121.554c-.008-91.175 71.054-166.555 162.072-171.918v404.896h-71.383c-2.912-44.881-20.381-87.588-49.756-121.645-26.439-31.069-40.95-70.538-40.933-111.333zm263.367 303.885c0 5.594-4.535 10.129-10.129 10.129h-162.073c-5.594 0-10.13-4.535-10.13-10.129s4.535-10.13 10.13-10.13h162.072c5.595 0 10.13 4.535 10.13 10.13zm-91.166 91.165c-16.47-.168-32.032-7.578-42.544-20.259h85.088c-10.512 12.681-26.073 20.091-42.544 20.259zm70.907-40.518h-141.813c-5.594 0-10.129-4.535-10.129-10.13s4.535-10.129 10.129-10.129h141.813c5.594 0 10.13 4.535 10.13 10.129s-4.536 10.13-10.13 10.13zm30.388-91.165c0 5.594-4.535 10.129-10.13 10.129h-182.33c-5.594 0-10.13-4.535-10.13-10.129s4.535-10.13 10.13-10.13h182.331c5.594 0 10.129 4.535 10.129 10.13zm71.292-266.791c.851 4.107 4.146 7.265 8.286 7.942l28.251 4.629c1.263.164 2.29 1.098 2.573 2.34 1.351 12.524 1.351 25.157 0 37.682-.268 1.286-1.305 2.271-2.603 2.472l-28.251 4.629c-4.136.68-7.426 3.837-8.276 7.942-4.204 20.356-12.234 39.729-23.663 57.09-2.297 3.5-2.205 8.053.233 11.456l16.805 23.45c.733.992.793 2.329.152 3.383-3.707 4.528-7.992 9.238-12.743 13.999-4.143 4.133-8.63 8.215-13.786 12.571-1.119.839-2.666.805-3.748-.081l-23.298-16.683c-3.402-2.433-7.949-2.526-11.446-.233-17.366 11.433-36.741 19.472-57.1 23.693-4.104.85-7.262 4.14-7.942 8.276l-4.629 28.251c-.158 1.264-1.088 2.296-2.33 2.583-6.293.66-12.615.998-18.942 1.013v-60.777c50.665 0 97.481-27.029 122.814-70.907 25.332-43.877 25.332-97.936 0-141.813s-72.149-70.906-122.814-70.906v-60.779c6.277.018 12.548.356 18.79 1.013 1.295.244 2.285 1.296 2.451 2.603l4.629 28.251c.681 4.139 3.843 7.43 7.952 8.276 20.355 4.211 39.727 12.244 57.09 23.673 3.498 2.293 8.045 2.2 11.446-.233l23.298-16.724c1.003-.81 2.408-.899 3.505-.223 4.908 4.037 9.607 8.32 14.08 12.834 4.446 4.359 8.643 8.965 12.571 13.796.731 1.119.661 2.581-.172 3.626l-16.693 23.298c-2.433 3.402-2.526 7.949-.233 11.446 11.462 17.372 19.52 36.763 23.743 57.142z" fill="#37352f" data-original="#000000" style=""/></g></g></g></g></svg>
