<?xml version="1.0"?>
<svg xmlns="http://www.w3.org/2000/svg" xmlns:xlink="http://www.w3.org/1999/xlink" xmlns:svgjs="http://svgjs.com/svgjs" version="1.1" width="512" height="512" x="0" y="0" viewBox="0 0 60 56" style="enable-background:new 0 0 512 512" xml:space="preserve"><g><g xmlns="http://www.w3.org/2000/svg" id="Page-1" fill="none" fill-rule="evenodd"><g id="019---Bookmarked-Books" fill="rgb(0,0,0)" fill-rule="nonzero" transform="translate(-1)"><path id="Shape" d="m57.038 6h.962c1.6568542 0 3-1.34314575 3-3s-1.3431458-3-3-3h-47c-4.30832373-.00566817-8.13464277 2.75214276-9.49173868 6.84114951-1.3570959 4.08900679.06097837 8.58737359 3.51773868 11.15885049h-1.026c-1.65685425 0-3 1.3431458-3 3s1.34314575 3 3 3h.957c.306.158 1.043 1.541 1.043 4 0 2.484-.754 3.875-1 4h-1c-1.65685425 0-3 1.3431458-3 3s1.34314575 3 3 3h1.026c-3.45676031 2.5714769-4.87483458 7.0698437-3.51773868 11.1588505 1.35709591 4.0890067 5.18341495 6.8468177 9.49173868 6.8411495h47c1.6568542 0 3-1.3431458 3-3s-1.3431458-3-3-3h-.957c-.306-.158-1.043-1.541-1.043-4 0-2.44.727-3.824 1.038-4h.962c1.6568542 0 3-1.3431458 3-3s-1.3431458-3-3-3h-1.026c2.5328113-1.8789573 4.0262278-4.8463333 4.0262278-8s-1.4934165-6.1210427-4.0262278-8h1.026c1.6568542 0 3-1.3431458 3-3s-1.3431458-3-3-3h-.957c-.306-.158-1.043-1.541-1.043-4 0-2.44.727-3.824 1.038-4zm-54.038 4c.00495988-4.41622192 3.58377808-7.99504012 8-8h47c.5522847.00000001 1 .44771526 1 1s-.4477153.99999999-1 1h-47c-3.31370845.00000007-5.99999987 2.68629155-5.99999987 6 0 3.3137084 2.68629142 5.9999999 5.99999987 6h22v2h-22c-4.41622192-.0049599-7.99504012-3.5837781-8-8zm42 5.006v3.982.012.012 3.97c-.0054036.0113917-.0054036.0246083 0 .036v.982l-4.1-2.054c-.5638101-.2800314-1.2261899-.2800314-1.79 0l-4.11 2.054v-13h10zm-42 5.994c0-.5522847.44771525-1 1-1h29v2h-29c-.55228475 0-1-.4477153-1-1zm4.306 3h25.694c-.0006749.6946105.3591006 1.3398284.9503634 1.7043725.5912629.3645442 1.3293295.3962027 1.9496366.0836275l4.1-2.053 4.1 2.053c.6203071.3125752 1.3583737.2809167 1.9496366-.0836275.5912628-.3645441.9510383-1.009762.9503634-1.7043725h4c2.209139 0 4 1.790861 4 4s-1.790861 4-4 4h-24v-3c0-1.1045695-.8954305-2-2-2h-10c-1.1045695 0-2 .8954305-2 2v3h-5.694c.48061745-1.2778814.71606087-2.634904.694-4 .02206087-1.365096-.21338255-2.7221186-.694-4zm17.694 21-4.1-2.054c-.5638101-.2800314-1.2261899-.2800314-1.79 0l-4.11 2.054v-16h10v7.99.01.01 3.975.015.015zm-21-9c-.55228475 0-1-.4477153-1-1s.44771525-1 1-1h9v2zm55 17c0 .5522847-.4477153 1-1 1h-47c-4.418278 0-8-3.581722-8-8s3.581722-8 8-8h2v2h-2c-3.3137085 0-6 2.6862915-6 6s2.6862915 6 6 6h47c.5522847 0 1 .4477153 1 1zm-4.306-3h-43.694c-2.209139 0-4-1.790861-4-4s1.790861-4 4-4h2v3c-.0006749.6946105.3591006 1.3398284.9503634 1.7043725.5912629.3645442 1.3293295.3962027 1.9496366.0836275l4.1-2.053 4.105 2.053c.6201427.3112495 1.357464.2779242 1.947-.088.5910663-.3623529.9503893-1.0067084.948-1.7v-3h27.694c-.9253646 2.5863886-.9253646 5.4136114 0 8zm3.306-12c.5522847 0 1 .4477153 1 1s-.4477153 1-1 1h-31v-2zm1-10c-.0049599 4.4162219-3.5837781 7.9950401-8 8h-24v-2h24c3.3137085 0 6-2.6862915 6-6s-2.6862915-6-6-6h-4v-2h4c4.4162219.0049599 7.9950401 3.5837781 8 8zm0-11c0 .5522847-.4477153 1-1 1h-11v-2h11c.5522847 0 1 .4477153 1 1zm-12-3v-3c0-1.1045695-.8954305-2-2-2h-10c-1.1045695 0-2 .8954305-2 2v3h-22c-2.209139 0-4-1.790861-4-4s1.790861-4 4-4h43.694c-.4806174 1.27788136-.7160609 2.63490396-.694 4-.0220609 1.365096.2133826 2.7221186.694 4z" fill="#37352f" data-original="#000000" style=""/></g></g></g></svg>
