<?xml version="1.0"?>
<svg xmlns="http://www.w3.org/2000/svg" xmlns:xlink="http://www.w3.org/1999/xlink" xmlns:svgjs="http://svgjs.com/svgjs" version="1.1" width="512" height="512" x="0" y="0" viewBox="0 0 60 60" style="enable-background:new 0 0 512 512" xml:space="preserve"><g><g xmlns="http://www.w3.org/2000/svg" id="Page-1" fill="none" fill-rule="evenodd"><g id="040---Journal" fill="rgb(0,0,0)" fill-rule="nonzero" transform="translate(0 -1)"><path id="Shape" d="m57.034 3.208-7.727-2.071c-1.7439011-.47603782-3.5886178.29091316-4.481 1.863h-29.01c-.4222546-1.19435087-1.5492146-1.99474861-2.816-2h-6c-1.65685425 0-3 1.34314575-3 3v4h-1c-1.65685425 0-3 1.34314575-3 3 0 1.6568542 1.34314575 3 3 3h1v7h-1c-1.65685425 0-3 1.3431458-3 3s1.34314575 3 3 3h1v8h-1c-1.65685425 0-3 1.3431458-3 3s1.34314575 3 3 3h1v7h-1c-1.6568542.0000001-2.99999987 1.3431458-2.99999987 3s1.34314567 2.9999999 2.99999987 3h1v4c0 1.6568542 1.34314575 3 3 3h6c1.2667854-.0052514 2.3937454-.8056491 2.816-2h20.329l.3.834c.167065.4617388.5495483.8124731 1.024.939.1257644.0345067.2555876.0519958.386.052.3540995.0003252.6968036-.1251322.967-.354l1.747-1.471h8.431c2.7600532-.0033061 4.9966939-2.2399468 5-5v-24.014l4.051-15.118 1.812-6.762c.5711032-2.1337211-.6953924-4.32647306-2.829-4.898zm-10.694 1.275c.2859853-1.06660142 1.3822913-1.69958494 2.449-1.414l7.728 2.07c.5126178.13711059.9497355.47231577 1.2151235.93182151.265388.45950573.3372898 1.00564177.1998765 1.51817849l-1.554 5.8-5.8-1.553-5.8-1.553zm9.52 10.833-.776 2.9-8.693-2.329-2.9-.777.777-2.9 5.795 1.553zm-13.36 39.444-6.37-1.694-1.063-2.941 9.815 2.628zm3.787-3.7-1.931-.517 4.914-18.357c.1430417-.5335071-.173493-1.0819582-.707-1.225-.5335071-.1430417-1.0819582.1734929-1.225.707l-4.918 18.357-3.865-1.035 2.072-7.732c.1211513-.3532612.0353618-.7445937-.2224628-1.0147743-.2578247-.2701807-.6447159-.3741815-1.0032574-.2696873-.3585416.1044942-.6289797.4000686-.7012798.7664616l-2.071 7.733-1.932-.517 8.278-30.916 1.932.518-4.918 18.353c-.1424732.5331923.1739486 1.0810004.707 1.224.0846917.0233384.1721515.0351119.26.035.4524951-.0005181.8482565-.3048238.965-.742l4.918-18.353 3.861 1.036-2.071 7.727c-.1424732.5331923.1739486 1.0810004.707 1.224.0846917.0233384.1721515.0351119.26.035.4521232-.00097.847353-.3051822.964-.742l2.072-7.727 1.931.518zm-15.287-46.06.006 25h-.006l-2.75-2.2c-.729202-.5891558-1.770798-.5891558-2.5 0l-2.75 2.2v-25zm-29 6c0-.5522847.44771525-1 1-1h5c.55228475 0 1 .4477153 1 1s-.44771525 1-1 1h-5c-.55228475 0-1-.4477153-1-1zm0 13c0-.5522847.44771525-1 1-1h5c.55228475 0 1 .4477153 1 1s-.44771525 1-1 1h-5c-.55228475 0-1-.4477153-1-1zm0 14c0-.5522847.44771525-1 1-1h5c.55228475 0 1 .4477153 1 1s-.44771525 1-1 1h-5c-.55228475 0-1-.4477153-1-1zm0 13c0-.5522847.44771525-1 1-1h5c.55228475 0 1 .4477153 1 1s-.44771525 1-1 1h-5c-.55228475 0-1-.4477153-1-1zm11 8h-6c-.55228475 0-1-.4477153-1-1v-4h2c1.6568542-.0000001 2.9999999-1.3431458 2.9999999-3s-1.3431457-2.9999999-2.9999999-3h-2v-7h2c1.65685425 0 3-1.3431458 3-3s-1.34314575-3-3-3h-2v-8h2c1.65685425 0 3-1.3431458 3-3s-1.34314575-3-3-3h-2v-7h2c1.65685425 0 3-1.3431458 3-3 0-1.65685425-1.34314575-3-3-3h-2v-4c0-.55228475.44771525-1 1-1h6c.5522847 0 1 .44771525 1 1v54c0 .5522847-.4477153 1-1 1zm3-2v-52h5v25c-.0002886.7690868.4404532 1.4702093 1.1336363 1.8033637.693183.3331545 1.5159955.2393156 2.1163637-.2413637l2.75-2.2 2.75 2.2c.6003682.4806793 1.4231807.5745182 2.1163637.2413637.6931831-.3331544 1.1339249-1.0342769 1.1336363-1.8033637v-25h11.131l-1.531 5.727-10.016 37.373c-.1072616.3956764-.0894467.8148512.051 1.2l2.787 7.7zm22.083 1.479-1.129-3.123 3.676.977zm13.917-4.479c0 1.6568542-1.3431458 3-3 3h-6.058l4.458-3.753c.3129825-.2628667.5371898-.6159408.642-1.011l3.958-14.786z" fill="#37352f" data-original="#000000" style=""/><path id="Shape" d="m48.2 9.123c.0847899.02285392.172185.03461864.26.035.4524951-.00051815.8482565-.30482376.965-.742l.26-.966.965.259c.5335071.14304175 1.0819582-.17349293 1.225-.707s-.1734929-1.08195825-.707-1.225l-.968-.258c-.5124006-.13744785-1.0584172-.06568272-1.5178981.19950335-.4594808.26518607-.7947755.7020635-.9321019 1.21449665l-.25.967c-.142317.53075072.1702783 1.07689942.7 1.223z" fill="#37352f" data-original="#000000" style=""/></g></g></g></svg>
