<?xml version="1.0"?>
<svg xmlns="http://www.w3.org/2000/svg" xmlns:xlink="http://www.w3.org/1999/xlink" xmlns:svgjs="http://svgjs.com/svgjs" version="1.1" width="512" height="512" x="0" y="0" viewBox="0 0 605.644 605.644" style="enable-background:new 0 0 512 512" xml:space="preserve" class=""><g><g xmlns="http://www.w3.org/2000/svg"><g id="Page-1_2_"><g id="_x30_03---History" transform="translate(-1)"><path id="Shape_18_" d="m135.715 198.157c-2.262 4.257-3.461 8.998-3.493 13.819v10.094c.053 12.787 8.132 24.163 20.188 28.425v11.951c.053 12.787 8.132 24.163 20.188 28.425v234.021c-16.724 0-30.282 13.558-30.282 30.282v30.282c0 11.15 9.039 20.188 20.188 20.188h282.634c11.15 0 20.188-9.039 20.188-20.188v-30.282c0-16.724-13.558-30.282-30.282-30.282v-234.022c12.056-4.262 20.135-15.638 20.188-28.425v-11.951c12.056-4.262 20.135-15.638 20.188-28.425v-10.094c-.032-4.821-1.23-9.562-3.493-13.819 48.712-13.381 80.017-60.73 73.249-110.792-6.767-50.061-49.52-87.398-100.037-87.364h-282.634c-50.517-.034-93.27 37.303-100.038 87.365s24.536 97.41 73.248 110.792zm309.424 357.016v30.282h-282.634v-30.282c0-5.575 4.519-10.094 10.094-10.094h262.446c5.574 0 10.094 4.52 10.094 10.094zm-252.352-30.282v-232.163h222.069v232.163zm242.258-262.445c0 5.575-4.519 10.094-10.094 10.094h-242.258c-5.575 0-10.094-4.519-10.094-10.094v-10.094h262.446zm20.188-50.471v10.094c0 5.575-4.519 10.094-10.094 10.094h-282.634c-5.575 0-10.094-4.519-10.094-10.094v-10.094c0-5.575 4.519-10.094 10.094-10.094h282.634c5.574 0 10.094 4.519 10.094 10.094zm-292.728-191.787h282.634c37.039.004 69.327 25.206 78.325 61.136s-7.602 73.374-40.268 90.834-73.022 10.458-97.897-16.986-27.891-68.291-7.315-99.09c2.081-2.996 2.384-6.882.791-10.165-1.592-3.282-4.832-5.45-8.474-5.669-3.642-.22-7.118 1.543-9.094 4.609-29.851 44.618-19.461 104.807 23.62 136.835h-162.01c43.082-32.028 53.471-92.217 23.62-136.835-3.141-4.522-9.327-5.693-13.904-2.631s-5.855 9.227-2.873 13.856c20.575 30.799 17.56 71.647-7.315 99.09-24.875 27.444-65.231 34.445-97.897 16.986s-49.266-54.904-40.268-90.834 41.286-61.132 78.325-61.136z" fill="#37352f" data-original="#000000" style=""/><path id="Shape_17_" d="m162.505 151.411c27.86-.033 50.437-22.61 50.47-50.47 0-5.575-4.519-10.094-10.094-10.094s-10.094 4.519-10.094 10.094c0 16.724-13.558 30.282-30.282 30.282s-30.282-13.558-30.282-30.282 13.558-30.282 30.282-30.282c5.575 0 10.094-4.519 10.094-10.094s-4.519-10.095-10.094-10.095c-27.874 0-50.47 22.596-50.47 50.47s22.596 50.471 50.47 50.471z" fill="#37352f" data-original="#000000" style=""/><path id="Shape_16_" d="m445.139 151.411c27.874 0 50.47-22.596 50.47-50.47s-22.596-50.47-50.47-50.47c-5.575 0-10.094 4.519-10.094 10.094s4.519 10.094 10.094 10.094c16.724 0 30.282 13.558 30.282 30.282s-13.558 30.282-30.282 30.282-30.282-13.558-30.282-30.282c0-5.575-4.519-10.094-10.094-10.094s-10.094 4.519-10.094 10.094c.033 27.86 22.61 50.437 50.47 50.47z" fill="#37352f" data-original="#000000" style=""/><path id="Shape_15_" d="m243.257 323.01c-5.575 0-10.094 4.519-10.094 10.094v161.505c0 5.575 4.519 10.094 10.094 10.094s10.094-4.519 10.094-10.094v-161.505c.001-5.575-4.519-10.094-10.094-10.094z" fill="#37352f" data-original="#000000" style=""/><path id="Shape_14_" d="m303.822 323.01c-5.575 0-10.094 4.519-10.094 10.094v161.505c0 5.575 4.519 10.094 10.094 10.094s10.094-4.519 10.094-10.094v-161.505c0-5.575-4.519-10.094-10.094-10.094z" fill="#37352f" data-original="#000000" style=""/><path id="Shape_13_" d="m364.386 323.01c-5.575 0-10.094 4.519-10.094 10.094v161.505c0 5.575 4.519 10.094 10.094 10.094s10.094-4.519 10.094-10.094v-161.505c0-5.575-4.519-10.094-10.094-10.094z" fill="#37352f" data-original="#000000" style=""/></g></g></g></g></svg>
