<?xml version="1.0"?>
<svg xmlns="http://www.w3.org/2000/svg" xmlns:xlink="http://www.w3.org/1999/xlink" xmlns:svgjs="http://svgjs.com/svgjs" version="1.1" width="512" height="512" x="0" y="0" viewBox="0 0 512 512.00011" style="enable-background:new 0 0 512 512" xml:space="preserve" class=""><g transform="matrix(1,0,0,1,80,0)"><path xmlns="http://www.w3.org/2000/svg" d="m116.226562 230.398438h119.464844c4.714844 0 8.535156-3.820313 8.535156-8.53125 0-4.714844-3.820312-8.535157-8.535156-8.535157h-119.464844c-4.714843 0-8.535156 3.820313-8.535156 8.535157 0 4.710937 3.820313 8.53125 8.535156 8.53125zm0 0" fill="#37352f" data-original="#000000" style="" class=""/><path xmlns="http://www.w3.org/2000/svg" d="m.0625 273.371094c-.777344 39.082031 7.351562 77.828125 23.777344 113.296875.183594.53125.425781 1.039062.714844 1.519531 15.257812 30.953125 38.179687 57.488281 66.582031 77.082031-10.808594 5.96875-17.535157 17.320313-17.578125 29.664063v8.53125c0 4.714844 3.820312 8.535156 8.53125 8.535156h187.734375c4.714843 0 8.535156-3.820312 8.535156-8.535156v-8.53125c-.046875-12.34375-6.773437-23.695313-17.578125-29.664063 28.265625-19.5 51.105469-45.871093 66.367188-76.632812.480468-.707031.847656-1.484375 1.085937-2.304688 16.316406-35.390625 24.390625-74.019531 23.621094-112.980469 0-.101562.058593-.183593.058593-.285156 0-.101562-.054687-.1875-.058593-.285156-.105469-12.78125-1.054688-25.542969-2.839844-38.199219-1.730469-11.6875-11.179687-20.707031-22.933594-21.886719-48.15625-4.945312-90.390625-40.53125-90.390625-76.160156 0-50.902344 48.347656-67 53.105469-68.460937 18.441406-.996094 32.730469-16.503907 32.210937-34.964844-.515624-18.460937-15.648437-33.1484375-34.117187-33.109375h-221.867187c-18.46875-.046875-33.613282 14.636719-34.132813 33.101562-.519531 18.460938 13.769531 33.976563 32.214844 34.96875 4.816406 1.476563 53.121093 17.582032 53.121093 68.464844 0 35.628906-42.234374 71.214844-90.441406 76.164063-11.726562 1.191406-21.148437 10.191406-22.875 21.851562-1.792968 12.660157-2.742187 25.425781-2.847656 38.210938-.0039062.105469-.0625.195312-.0625.304687s.0585938.199219.0625.304688zm314.878906 102.09375h-277.960937c-13.671875-29.386719-20.617188-61.453125-20.339844-93.863282h318.644531c.28125 32.410157-6.667968 64.476563-20.34375 93.863282zm-224.316406 119.46875c.011719-9.421875 7.644531-17.054688 17.066406-17.066406h136.535156c9.417969.011718 17.054688 7.644531 17.066407 17.066406zm145.578125-34.132813h-120.488281c-28.441406-16.6875-52.324219-40.136719-69.523438-68.265625h259.539063c-17.203125 28.128906-41.085938 51.578125-69.527344 68.265625zm-188.246094-426.667969c.011719-9.421874 7.648438-17.054687 17.066407-17.066406h221.867187c9.425781 0 17.066406 7.640625 17.066406 17.066406 0 9.425782-7.640625 17.066407-17.066406 17.066407h-221.867187c-9.417969-.011719-17.054688-7.644531-17.066407-17.066407zm-20.375 195.539063c57.300781-5.882813 105.710938-48.535156 105.710938-93.136719.292969-27.011718-12.570313-52.476562-34.484375-68.269531h154.300781c-21.914063 15.792969-34.78125 41.257813-34.484375 68.269531 0 44.601563 48.410156 87.253906 105.65625 93.132813 3.988281.359375 7.21875 3.378906 7.84375 7.332031 1.382812 9.539062 2.257812 18.695312 2.75 27.535156h-317.828125c.492187-8.851562 1.367187-18.015625 2.753906-27.5625.625-3.925781 3.824219-6.929687 7.78125-7.300781zm0 0" fill="#37352f" data-original="#000000" style="" class=""/><path xmlns="http://www.w3.org/2000/svg" d="m90.625 298.667969h-34.132812c-4.714844 0-8.535157 3.820312-8.535157 8.53125v17.066406c0 4.714844 3.820313 8.535156 8.535157 8.535156 4.710937 0 8.53125-3.820312 8.53125-8.535156v-8.53125h17.066406v25.597656h-34.132813c-4.710937 0-8.53125 3.820313-8.53125 8.535157 0 4.710937 3.820313 8.53125 8.53125 8.53125h42.667969c4.710938 0 8.535156-3.820313 8.535156-8.53125v-42.667969c0-4.710938-3.824218-8.53125-8.535156-8.53125zm0 0" fill="#37352f" data-original="#000000" style="" class=""/><path xmlns="http://www.w3.org/2000/svg" d="m158.890625 298.667969h-34.132813c-4.710937 0-8.53125 3.820312-8.53125 8.53125v17.066406c0 4.714844 3.820313 8.535156 8.53125 8.535156 4.714844 0 8.535157-3.820312 8.535157-8.535156v-8.53125h17.066406v25.597656h-34.132813c-4.714843 0-8.535156 3.820313-8.535156 8.535157 0 4.710937 3.820313 8.53125 8.535156 8.53125h42.664063c4.714844 0 8.535156-3.820313 8.535156-8.53125v-42.667969c0-4.710938-3.820312-8.53125-8.535156-8.53125zm0 0" fill="#37352f" data-original="#000000" style="" class=""/><path xmlns="http://www.w3.org/2000/svg" d="m235.691406 298.667969h-34.132812c-4.714844 0-8.535156 3.820312-8.535156 8.53125v17.066406c0 4.714844 3.820312 8.535156 8.535156 8.535156 4.710937 0 8.53125-3.820312 8.53125-8.535156v-8.53125h17.070312v25.597656h-34.136718c-4.710938 0-8.53125 3.820313-8.53125 8.535157 0 4.710937 3.820312 8.53125 8.53125 8.53125h42.667968c4.714844 0 8.535156-3.820313 8.535156-8.53125v-42.667969c0-4.710938-3.820312-8.53125-8.535156-8.53125zm0 0" fill="#37352f" data-original="#000000" style="" class=""/><path xmlns="http://www.w3.org/2000/svg" d="m303.957031 298.667969h-34.132812c-4.710938 0-8.53125 3.820312-8.53125 8.53125v17.066406c0 4.714844 3.820312 8.535156 8.53125 8.535156 4.714843 0 8.535156-3.820312 8.535156-8.535156v-8.53125h17.066406v25.597656h-34.132812c-4.714844 0-8.535157 3.820313-8.535157 8.535157 0 4.710937 3.820313 8.53125 8.535157 8.53125h42.664062c4.714844 0 8.535157-3.820313 8.535157-8.53125v-42.667969c0-4.710938-3.820313-8.53125-8.535157-8.53125zm0 0" fill="#37352f" data-original="#000000" style="" class=""/></g></svg>
