<?xml version="1.0"?>
<svg xmlns="http://www.w3.org/2000/svg" xmlns:xlink="http://www.w3.org/1999/xlink" xmlns:svgjs="http://svgjs.com/svgjs" version="1.1" width="512" height="512" x="0" y="0" viewBox="0 0 60 60" style="enable-background:new 0 0 512 512" xml:space="preserve" class=""><g><g xmlns="http://www.w3.org/2000/svg" id="Page-1" fill="none" fill-rule="evenodd"><g id="033---Mountain-Summit" fill="rgb(0,0,0)" fill-rule="nonzero"><path id="Shape" d="m29.258 30.78-9.541 10.549c-.2397252.2649124-.3199114.6375935-.2103531.9776579.1095583.3400643.3922165.5958481.7415.671.3492836.0751519.7121279-.0417454.9518531-.3066579l9.541-10.549c.3705831-.4097953.3387953-1.0424169-.071-1.413s-1.0424169-.3387953-1.413.071z" fill="#37352f" data-original="#000000" style="" class=""/><path id="Shape" d="m13.258 48.471-4.394 4.858c-.23972523.2649124-.31991138.6375935-.21035309.9776579.1095583.3400643.39221651.5958481.74150003.671.34928351.0751519.71212786-.0417454.95185306-.3066579l4.4-4.858c.3705831-.4097953.3387953-1.0424169-.071-1.413s-1.0424169-.3387953-1.413.071z" fill="#37352f" data-original="#000000" style="" class=""/><path id="Shape" d="m30 0c-.5522847 0-1 .44771525-1 1v24.287c-.466.248 1.763-2.134-28.469 31.292-.54320321.5998731-.68200254 1.4634587-.35412983 2.2033351.3278727.7398763 1.06086026 1.2171337 1.87012983 1.2176649h55.906c.8092696-.0005312 1.5422571-.4777886 1.8701298-1.2176649.3278727-.7398764.1890734-1.603462-.3541298-2.2033351-29.917-33.079-27.969-31.026-28.469-31.292v-11.287h9v3c0 1.6568542 1.3431458 3 3 3h13c.8103708.0010473 1.5412798-.4870148 1.8508752-1.2359157s.1366789-1.6106041-.4378752-2.1820843l-2.587-2.582 2.59-2.581c.5756666-.5717676.7488552-1.43467016.4383966-2.18428726-.3104585-.7496171-1.0430378-1.23739028-1.8543966-1.23471274h-7v-4c0-1.1045695-.8954305-2-2-2h-16v-1c0-.55228475-.4477153-1-1-1zm27.953 58-55.938-.08 12.585-13.883 3.849 4.492c.387618.4515813.9557361.7077411 1.5508001.6992429.595064-.0084981 1.1556355-.2807768 1.5301999-.7432429l2.37-2.965 3.457 5.535c.3531461.5672837.966274.9207229 1.6341585.9420148.6678845.021292 1.3022795-.2923765 1.6908415-.8360148l3.365-4.707 2.38 2.981c.382476.4780767.9628573.7546305 1.5750897.7505359.6122324-.0040945 1.1888628-.2883863 1.5649103-.7715359l4.956-6.375 13.462 14.881c.988-.893 1.001-.92-.032.08zm-14.79-16.468-5.172 6.654-2.383-2.986c-.3915946-.4903523-.9906325-.7684801-1.6179224-.7511863-.62729.0172937-1.2100942.3280035-1.5740776.8391863l-3.358 4.712-3.465-5.548c-.348064-.5440784-.9367026-.887398-1.5816361-.9224789-.6449334-.0350809-1.2673383.2423645-1.6723639.7454789l-2.37 2.954-4.014-4.686 14.078-15.528zm2.137-27.532-3.3 2.825v-2.825zm10.7-4-2.589 2.581c-.3773945.3753763-.589583.8857087-.589583 1.418s.2121885 1.0426237.589583 1.418l2.589 2.583h-12.3l4.949-4.241-.008-.009c.2246037-.1846766.3560264-.4592365.359-.75v-3zm-9-6v8h-16v-8z" fill="#37352f" data-original="#000000" style="" class=""/><path id="Shape" d="m34 8h10c.5522847 0 1-.44771525 1-1s-.4477153-1-1-1h-10c-.5522847 0-1 .44771525-1 1s.4477153 1 1 1z" fill="#37352f" data-original="#000000" style="" class=""/></g></g></g></svg>
