<svg width="406" height="406" xmlns="http://www.w3.org/2000/svg" preserveAspectRatio="xMidYMid meet" version="1.0">
 <metadata>Created by potrace 1.16, written by Peter Selinger 2001-2019</metadata>

 <g>
  <title>Layer 1</title>
  <g id="svg_1" fill="#000000" transform="translate(0 406) scale(0.1 -0.1)">
   <path fill="#212b2e" id="svg_2" d="m1977,4013c-64,-106 -143,-364 -188,-618c-11,-66 -22,-122 -24,-123c-6,-6 -99,38 -131,63c-18,14 -35,25 -37,25c-2,0 -17,-28 -33,-62c-39,-88 -46,-252 -15,-380c35,-149 113,-291 207,-378c108,-101 197,-482 245,-1063c14,-161 22,-166 33,-17c17,253 71,617 117,797c40,159 74,227 155,315c105,112 168,247 195,413c20,128 0,281 -47,353l-15,22l-44,-30c-25,-17 -63,-37 -85,-45c-46,-16 -38,-34 -70,145c-27,150 -83,362 -120,459c-34,88 -84,171 -102,171c-7,0 -26,-21 -41,-47z"/>
   <path fill="#212b2e" id="svg_3" d="m380,3044c0,-5 19,-43 41,-84c97,-177 234,-338 370,-434l23,-16l-24,-25l-24,-25l21,-28c61,-83 223,-179 391,-232c287,-91 471,-353 578,-827l24,-108l-5,110c-6,139 -36,323 -79,490c-88,340 -239,628 -431,821c-221,222 -465,330 -807,360c-43,3 -78,2 -78,-2z"/>
   <path fill="#212b2e" id="svg_4" d="m3555,3043c-211,-25 -317,-53 -461,-123c-474,-230 -776,-797 -838,-1578c-4,-48 -3,-71 4,-67c5,3 10,16 10,28c0,13 13,78 30,145c66,269 170,473 311,608c83,78 134,108 264,150c58,18 131,47 163,63c74,37 176,114 209,157l26,35l-24,25l-24,26l29,20c97,71 189,167 269,281c45,62 137,218 137,230c0,7 -50,7 -105,0z"/>
   <path fill="#212b2e" id="svg_5" d="m431,2129c-121,-20 -378,-128 -354,-148c4,-4 28,-13 53,-20c25,-7 108,-42 185,-78c77,-36 164,-70 195,-77l55,-11l-9,-36c-12,-51 -3,-67 51,-91c56,-25 186,-28 299,-8c39,7 113,11 166,8c83,-3 104,-8 163,-37c85,-42 207,-157 307,-288c39,-51 73,-91 76,-89c8,9 -119,240 -196,356c-94,141 -261,314 -377,389c-182,117 -404,165 -614,130z"/>
   <path fill="#212b2e" id="svg_6" d="m3320,2125c-192,-41 -341,-127 -497,-286c-92,-94 -162,-183 -234,-300c-60,-97 -154,-278 -147,-284c3,-3 34,34 70,82c128,171 260,285 367,317c63,18 212,21 281,5c25,-6 90,-11 146,-11c158,-1 230,43 195,118c-15,33 -15,34 12,34c33,0 115,30 227,83c52,25 130,57 173,72l78,28l-45,28c-58,37 -146,73 -237,99c-96,28 -296,36 -389,15z"/>
   <path fill="#212b2e" id="svg_7" d="m580,1504c-82,-21 -225,-94 -307,-155c-40,-30 -73,-57 -73,-60c0,-15 73,-19 132,-9c58,10 70,9 140,-14c165,-56 355,-75 442,-46c26,8 69,11 130,7c102,-5 209,-39 323,-102c36,-20 68,-34 71,-31c14,14 -149,192 -240,262c-81,63 -191,119 -278,143c-90,25 -255,27 -340,5z"/>
   <path fill="#212b2e" id="svg_8" d="m3130,1497c-87,-26 -190,-80 -269,-142c-87,-67 -253,-247 -239,-260c2,-2 47,18 100,44c53,27 132,58 175,70c87,23 204,28 250,10c41,-16 206,-13 291,5c41,9 108,28 150,42c70,23 82,24 140,14c59,-10 132,-6 132,9c0,11 -148,115 -212,148c-121,62 -172,75 -313,79c-113,4 -140,1 -205,-19z"/>
   <path fill="#212b2e" id="svg_9" d="m2004,1145c-22,-58 -121,-279 -152,-340c-45,-86 -115,-159 -169,-175c-34,-10 -60,-7 -208,25c-94,20 -181,39 -194,42c-15,4 -22,2 -20,-5c7,-20 744,-692 756,-690c7,2 166,145 354,318c188,173 356,327 373,342c17,14 28,29 25,32c-3,3 -88,-12 -190,-34c-111,-25 -196,-38 -215,-35c-46,8 -109,58 -149,118c-19,29 -67,122 -105,207c-39,85 -77,169 -84,185c-13,28 -15,28 -22,10z"/>
   <path fill="#212b2e" id="svg_10" d="m878,1001c-116,-37 -232,-139 -311,-272l-37,-64l52,-3c30,-2 94,6 147,18c59,14 111,20 140,17c42,-5 56,1 175,64c149,81 198,94 314,86l84,-6l-44,35c-52,42 -205,118 -270,133c-70,16 -185,13 -250,-8z"/>
   <path fill="#212b2e" id="svg_11" d="m2922,1005c-68,-16 -204,-84 -260,-129l-44,-35l84,6c116,8 165,-5 314,-86c119,-63 133,-69 175,-64c29,3 81,-3 140,-17c53,-12 117,-20 147,-18l52,3l-37,64c-49,81 -139,180 -203,221c-102,65 -240,86 -368,55z"/>
  </g>
 </g>
</svg>