<?xml version="1.0"?>
<svg xmlns="http://www.w3.org/2000/svg" xmlns:xlink="http://www.w3.org/1999/xlink" xmlns:svgjs="http://svgjs.com/svgjs" version="1.1" width="512" height="512" x="0" y="0" viewBox="0 0 605.644 605.644" style="enable-background:new 0 0 512 512" xml:space="preserve" class=""><g><g xmlns="http://www.w3.org/2000/svg"><g id="Page-1_91_"><g id="_x30_92---Arithmatic"><path id="Shape_328_" d="m585.455 546.937v-511.608c0-19.512-15.817-35.329-35.329-35.329s-35.329 15.817-35.329 35.329v55.517h-21.621c-3.649-14.511-15.083-25.779-29.647-29.215-14.563-3.436-29.828 1.532-39.578 12.882-7.569-8.853-18.634-13.951-30.282-13.951s-22.713 5.097-30.282 13.951c-7.569-8.853-18.634-13.951-30.282-13.951s-22.713 5.097-30.282 13.951c-9.751-11.35-25.015-16.318-39.578-12.882s-25.997 14.703-29.647 29.215h-43.243c-4.532-17.808-20.567-30.273-38.943-30.273s-34.412 12.466-38.944 30.274h-21.621v-55.518c0-19.512-15.818-35.329-35.33-35.329s-35.329 15.817-35.329 35.329v511.607c-12.056 4.263-20.135 15.638-20.188 28.425v20.188c0 5.575 4.519 10.094 10.094 10.094h585.455c5.575 0 10.094-4.519 10.094-10.094v-20.188c-.052-12.787-8.132-24.162-20.188-28.424zm-50.47-511.608c0-8.362 6.779-15.141 15.141-15.141s15.141 6.779 15.141 15.141v509.75h-30.282zm-444.138 509.75v-70.658h21.621c3.649 14.511 15.083 25.779 29.647 29.215 14.563 3.436 29.828-1.532 39.578-12.882 7.569 8.853 18.634 13.951 30.282 13.951s22.713-5.097 30.282-13.951c7.569 8.853 18.634 13.951 30.282 13.951s22.713-5.097 30.282-13.951c9.751 11.35 25.015 16.318 39.578 12.882s25.997-14.703 29.647-29.215h43.243c4.532 17.808 20.567 30.273 38.943 30.273s34.41-12.465 38.943-30.273h21.621v70.658zm21.621-312.916c3.649 14.511 15.083 25.779 29.647 29.215 14.563 3.436 29.828-1.532 39.578-12.882 9.751 11.35 25.015 16.318 39.578 12.882s25.997-14.703 29.647-29.215h43.243c3.649 14.511 15.083 25.779 29.647 29.215 14.563 3.436 29.828-1.532 39.578-12.882 7.569 8.853 18.634 13.951 30.282 13.951s22.713-5.097 30.282-13.951c9.751 11.35 25.015 16.318 39.578 12.882s25.997-14.703 29.647-29.215h21.621v100.941h-21.621c-3.649-14.511-15.083-25.779-29.647-29.215-14.563-3.436-29.828 1.532-39.578 12.882-9.751-11.35-25.015-16.318-39.578-12.882s-25.997 14.703-29.647 29.215h-43.243c-3.649-14.511-15.083-25.779-29.647-29.215-14.563-3.436-29.828 1.532-39.578 12.882-7.569-8.853-18.634-13.951-30.282-13.951s-22.713 5.097-30.282 13.951c-9.751-11.35-25.015-16.318-39.578-12.882s-25.997 14.703-29.647 29.215h-21.621v-100.941zm18.755-10.094c0-11.15 9.039-20.188 20.188-20.188 11.15 0 20.188 9.039 20.188 20.188s-9.039 20.188-20.188 20.188c-11.15 0-20.188-9.038-20.188-20.188zm60.564 0c0-11.15 9.039-20.188 20.188-20.188s20.188 9.039 20.188 20.188-9.039 20.188-20.188 20.188-20.188-9.038-20.188-20.188zm121.129 0c0-11.15 9.039-20.188 20.188-20.188 11.15 0 20.188 9.039 20.188 20.188s-9.039 20.188-20.188 20.188c-11.15 0-20.188-9.038-20.188-20.188zm60.564 0c0-11.15 9.039-20.188 20.188-20.188 11.15 0 20.188 9.039 20.188 20.188s-9.039 20.188-20.188 20.188-20.188-9.038-20.188-20.188zm60.565 0c0-11.15 9.039-20.188 20.188-20.188 11.15 0 20.188 9.039 20.188 20.188s-9.039 20.188-20.188 20.188c-11.15 0-20.188-9.038-20.188-20.188zm40.376 121.129c0 11.15-9.039 20.188-20.188 20.188-11.15 0-20.188-9.039-20.188-20.188 0-11.15 9.039-20.188 20.188-20.188s20.188 9.038 20.188 20.188zm-60.565 0c0 11.15-9.039 20.188-20.188 20.188-11.15 0-20.188-9.039-20.188-20.188 0-11.15 9.039-20.188 20.188-20.188 11.15 0 20.188 9.038 20.188 20.188zm-121.128 0c0 11.15-9.039 20.188-20.188 20.188s-20.188-9.039-20.188-20.188c0-11.15 9.039-20.188 20.188-20.188s20.188 9.038 20.188 20.188zm-60.565 0c0 11.15-9.039 20.188-20.188 20.188s-20.188-9.039-20.188-20.188c0-11.15 9.039-20.188 20.188-20.188s20.188 9.038 20.188 20.188zm-60.564 0c0 11.15-9.039 20.188-20.188 20.188-11.15 0-20.188-9.039-20.188-20.188 0-11.15 9.039-20.188 20.188-20.188s20.188 9.038 20.188 20.188zm-59.131 10.094c3.649 14.511 15.083 25.779 29.647 29.215 14.563 3.436 29.828-1.532 39.578-12.882 7.569 8.853 18.634 13.951 30.282 13.951s22.713-5.097 30.282-13.951c9.751 11.35 25.015 16.318 39.578 12.882s25.997-14.703 29.647-29.215h43.243c3.649 14.511 15.083 25.779 29.647 29.215 14.563 3.436 29.828-1.532 39.578-12.882 9.751 11.35 25.015 16.318 39.578 12.882s25.997-14.703 29.647-29.215h21.621v100.941h-21.621c-4.532-17.808-20.567-30.273-38.943-30.273s-34.41 12.465-38.943 30.273h-43.243c-3.649-14.511-15.083-25.779-29.647-29.215-14.563-3.436-29.828 1.532-39.578 12.882-7.569-8.853-18.634-13.951-30.282-13.951s-22.713 5.097-30.282 13.951c-7.569-8.853-18.634-13.951-30.282-13.951s-22.713 5.097-30.282 13.951c-9.751-11.35-25.015-16.318-39.578-12.882s-25.997 14.703-29.647 29.215h-21.621v-100.941zm361.953 111.035c0 11.15-9.039 20.188-20.188 20.188-11.15 0-20.188-9.039-20.188-20.188 0-11.15 9.039-20.188 20.188-20.188s20.188 9.038 20.188 20.188zm-121.129 0c0 11.15-9.039 20.188-20.188 20.188-11.15 0-20.188-9.039-20.188-20.188 0-11.15 9.039-20.188 20.188-20.188 11.15 0 20.188 9.038 20.188 20.188zm-60.564 0c0 11.15-9.039 20.188-20.188 20.188s-20.188-9.039-20.188-20.188c0-11.15 9.039-20.188 20.188-20.188s20.188 9.038 20.188 20.188zm-60.565 0c0 11.15-9.039 20.188-20.188 20.188s-20.188-9.039-20.188-20.188c0-11.15 9.039-20.188 20.188-20.188s20.188 9.038 20.188 20.188zm-60.564 0c0 11.15-9.039 20.188-20.188 20.188-11.15 0-20.188-9.039-20.188-20.188 0-11.15 9.039-20.188 20.188-20.188s20.188 9.038 20.188 20.188zm282.634-383.575c11.15 0 20.188 9.039 20.188 20.188s-9.039 20.188-20.188 20.188c-11.15 0-20.188-9.039-20.188-20.188s9.038-20.188 20.188-20.188zm-60.565 0c11.15 0 20.188 9.039 20.188 20.188s-9.039 20.188-20.188 20.188c-11.15 0-20.188-9.039-20.188-20.188s9.039-20.188 20.188-20.188zm-60.564 0c11.15 0 20.188 9.039 20.188 20.188s-9.039 20.188-20.188 20.188c-11.15 0-20.188-9.039-20.188-20.188s9.038-20.188 20.188-20.188zm-60.564 0c11.15 0 20.188 9.039 20.188 20.188s-9.039 20.188-20.188 20.188-20.188-9.039-20.188-20.188 9.038-20.188 20.188-20.188zm-121.129 0c11.15 0 20.188 9.039 20.188 20.188s-9.039 20.188-20.188 20.188c-11.15 0-20.188-9.039-20.188-20.188s9.038-20.188 20.188-20.188zm-38.943 30.283c4.532 17.808 20.567 30.273 38.943 30.273s34.41-12.465 38.943-30.273h43.243c3.649 14.511 15.083 25.779 29.647 29.215 14.563 3.436 29.828-1.532 39.578-12.882 7.569 8.853 18.634 13.951 30.282 13.951s22.713-5.097 30.282-13.951c7.569 8.853 18.634 13.951 30.282 13.951s22.713-5.097 30.282-13.951c9.751 11.35 25.015 16.318 39.578 12.882s25.997-14.703 29.647-29.215h21.621v100.941h-21.621c-3.649-14.511-15.083-25.779-29.647-29.215-14.563-3.436-29.828 1.532-39.578 12.882-7.569-8.853-18.634-13.951-30.282-13.951s-22.713 5.097-30.282 13.951c-9.751-11.35-25.015-16.318-39.578-12.882s-25.997 14.703-29.647 29.215h-43.243c-3.649-14.511-15.083-25.779-29.647-29.215-14.563-3.436-29.828 1.532-39.578 12.882-9.751-11.35-25.015-16.318-39.578-12.882s-25.997 14.703-29.647 29.215h-21.621v-100.941zm-72.092-75.706c0-8.362 6.779-15.141 15.141-15.141s15.141 6.779 15.141 15.141v509.75h-30.282zm545.079 550.126h-565.267v-10.094c0-5.575 4.519-10.094 10.094-10.094h545.079c5.575 0 10.094 4.519 10.094 10.094z" fill="#37352f" data-original="#000000" style="" class=""/></g></g></g></g></svg>
